<?xml version="1.0" standalone="no"?>
<!DOCTYPE svg PUBLIC "-//W3C//DTD SVG 20010904//EN"
 "http://www.w3.org/TR/2001/REC-SVG-20010904/DTD/svg10.dtd">
<svg version="1.0" xmlns="http://www.w3.org/2000/svg"
 width="512.000000pt" height="512.000000pt" viewBox="0 0 512.000000 512.000000"
 preserveAspectRatio="xMidYMid meet">

<g transform="translate(0.000000,512.000000) scale(0.100000,-0.100000)"
fill="#ff3200" stroke="none">
<path d="M4105 4769 c-471 -50 -1013 -286 -1485 -648 -211 -162 -465 -407
-629 -608 l-84 -103 -321 0 c-358 0 -397 -5 -523 -66 -139 -66 -279 -204 -386
-377 -21 -34 -96 -178 -168 -319 l-129 -258 492 0 493 0 513 -513 512 -512 0
-493 0 -492 268 134 c147 74 301 157 342 185 165 109 281 232 344 364 61 126
66 165 66 523 l0 321 103 84 c147 120 382 354 506 502 209 253 339 452 476
732 137 279 210 491 255 745 20 109 23 170 27 468 l5 342 -298 -1 c-165 -1
-335 -5 -379 -10z m-540 -1051 c60 -31 124 -96 156 -158 20 -38 24 -60 24
-145 0 -86 -3 -107 -24 -150 -33 -67 -100 -131 -169 -163 -81 -37 -193 -38
-273 0 -79 36 -133 89 -171 166 -29 59 -33 76 -33 147 1 118 49 213 142 276
71 49 108 59 208 56 74 -3 99 -8 140 -29z"/>
<path d="M1084 1598 c-55 -57 -114 -124 -132 -150 -76 -111 -160 -310 -211
-504 -34 -125 -60 -254 -53 -258 4 -2 71 9 148 25 228 46 436 124 581 218 65
42 283 246 283 265 0 14 -492 506 -506 506 -6 0 -56 -46 -110 -102z"/>
</g>
</svg>
